<?xml version="1.0" encoding="UTF-8"?> <svg xmlns="http://www.w3.org/2000/svg" xmlns:xlink="http://www.w3.org/1999/xlink" id="Layer_1" x="0px" y="0px" viewBox="-7.3901 -31.2657 1317.3901 1959.5686" xml:space="preserve"> <g> <path d="M1114.85,11.79c6.35-2.36,13.63-4.52,20.23-1.82c6.1801,2.72,9.3101,9.55,9.74,15.98c1.12,13.78-3.6899,27.06-8.0699,39.89 c-17.59,48.39-25.08,99.57-32.9,150.23c-14.1899,94.54-28.16,189.35-52,282.05c-10.9399,42.86-24.02,85.14-37.87,127.13 c-13.35,38.97-27.3,77.75-42.95,115.86c-7.59,18.44-15.34,36.86-24.32,54.68c-7.53,14.97-17.55,28.65-23.73,44.29 c-9.28,21.55-13.6,45.53-10.55,68.9c2.22,19.67,8.79,39.08,20.37,55.24c8.16,11.46,19.05,20.95,31.52,27.48 c19.6,10.44,41.74,14.95,63.66,17.23c42.27,4,84.8101,0.22,126.8-4.97c36.78-4.75,73.37-11.04,109.48-19.47 c6.3099-1.39,12.46-3.48,18.86-4.46c-18.12,6.62-36.62,12.21-54.99,18.09c-45.63,13.92-92.12,27.49-140.14,28.84 c-24.62,1.24-49.27-0.8199-73.73-3.52c-26.46-3.17-52.79-7.64-78.69-13.92c-16.15-4.13-32.96-8.39-46.38-18.76 c-5.24-4.53-10.28-9.57-13.3-15.88c-5.66-10.73-7.06-22.98-8.25-34.87c-0.41-6.67-0.13-13.38-0.85-20.03 c-0.47-15.11,0.04-30.24-0.59-45.34c-0.9-7.16-0.68-14.39-0.84-21.59c0.04-6.9-1.14-13.78-0.51-20.69 c0.4901-4.45,0.55-8.93,0.6801-13.4c1.28-21.27,6.75-42.08,14.3799-61.91c7.19-19.09,15.6-37.68,23.6-56.43 c39.52-91.48,68.21-187.39,89.09-284.75c12.27-56.84,22.45-114.1,32.66-171.34c4.24-25.08,9.23-50.13,10.74-75.57 c0.0601-2.8-0.71-5.5-1.3101-8.2c-1.2899,0.27-2.7599,0.17-3.72,1.22c-5.73,4.97-10.48,10.91-15.03,16.95 c-35.95,46.57-68.85,95.65-96.31,147.73c-30.64,58.39-53.87,120.62-69.37,184.71c-11.47,47.15-18.65,95.37-21.04,143.83 c-0.99,7.88-0.39,15.85-1.25,23.74c-0.68,9.33-0.21,18.69-0.79,28.03c-1,11.96-0.26,24-1.02,35.98 c-0.67,6.98-0.47,14.01-0.71,21.02c-1.15,16.76-1.6,33.71-5.43,50.14c-1.87,7.68-4.77,15.68-11.13,20.79 c-5.17,4.3199-12.65,3.89-18.71,1.94c-10.93-4.13-20.17-11.54-29.05-18.96c-8.45-6.83-16.14-14.55-24.54-21.44 c-3.64-3.73-7.23-7.54-11.4301-10.65c-8.1-7.96-16.98-15.1-26.24-21.67c-10.79-7.54-23.14-13.15-36.27-14.87 c-15.94-2-32.01,0.52-47.56,3.99c-18.4301,4.07-36.54,9.5-54.48,15.34c-24.9,8.49-49.59,17.88-72.94,30.06 c-15.61,8.12-30.07,18.26-43.76,29.26c-13.02,10.34-25.96,21.41-41.75,27.31c-40.56,15.58-85.66,10.8-126.42,25.62 c-11,4.34-21.98,10-29.82,19.09c-14.02,12.14-21.29,30.12-25.12,47.87c-4.09,19.72-5.75,39.84-9.57,59.61 c-8.53,47.34-29.79,90.98-51.2,133.61c-10.83,21.64-22.14,43.04-33.38,64.47c-10.54,20.9-21.04,41.8201-31.44,62.79 c-9.24,18.37-18.05,36.96-27.84,55.0499c-3.13,6.0801-5.95,12.3401-8.34,18.75c-3.98,10.89-3.15,23.16,1.25,33.8 c5.15,12.76,13.16,24.28,22.72,34.13c14.48,14.76,34.18,24.89,54.99,26.13c10.02,0.5599,19.71-3,28.35-7.79 c12.39-6.85,23.63-15.5499,34.76-24.23c19.17-15.12,37.78-30.92,56.73-46.29c11.7-9.3999,23.34-19,36.17-26.84 c3.54-2.1899,7.35-4.15,11.58-4.4399c0.16,3.77-2.14,6.89-4.25,9.7899c-11.03,14.8-24.87,27.12-37.57,40.42 c-4.24,4.02-7.63,8.96-12.55,12.23c-3.58,2.4401-6.43,5.73-9.41,8.84c-3.21,3.5-7.36,5.9601-10.58,9.4601 c-3.33,3.6799-7.43,6.53-10.95,10.01c-6.02,6.3099-13.27,11.37-18.64,18.3199c-6.6,7.04-12.29,15.61-13.13,25.47 c-1.71,18.1001,6.62,35.0901,7.88,52.92c0.23,2.46-1.19,4.6-2.27,6.7c-4.88-0.1899-8.5-3.7999-11.88-6.8999 c-8.96-8.7201-17.73-17.63-26.22-26.79c-5.44-5.9301-11.74-10.96-17.4-16.66c-11.04-8.7999-22.59-18.21-36.73-21.24 c-2.5-1.0499-5.77,1.08-5.33,3.88c0.61,5.73,3.25,11,5.28,16.34c7.65,17.89,16.44,35.27,25.15,52.67 c5.27,9.97,10.06,20.25,16.47,29.5699c4.38,6.3,10.36,12.1901,18.16,13.7201c7.42,1.25,14.99,0.1699,22.33-1.12 c12.95-2.3401,25.89-5.02,39.06-5.6801c26.69-1.24,53.3,2.33,79.99,1.84c19.61-0.3999,39.37-3.3199,57.65-10.6499 c13.01-5.1101,25.01-12.4901,36.09-20.9501c15.42-11.75,30.51-24.1,47.53-33.53c16.67-9.5299,34.87-16.09,53.47-20.71 c41.11-10.26,83.28-15.55,124.32-26.15c37.25-9.3199,73.3-23.5499,106.68-42.5599c29.15-16.6801,56.4-37.12,78.82-62.25 c28.52-31.5901,48.52-70.0901,61.48-110.4401c2.97-7.75,4.28-16.21,8.47-23.4299c0.96,10.34-0.34,20.73-1.75,30.98 c-5.98,39.22-21.51,77.04-45.36,108.78c-23.28,31.09-52.02,57.73-82.96,81.0499c-30.62,23.1-64.16,42.61-100.26,55.77 c-21.52,8.15-43.86,13.84-65.61,21.3c-13.25,4.51-25.91,10.7-37.6,18.39c-17.6,11.37-33.82,24.8999-52.41,34.71 c-17.76,9.5-37.06,15.6799-56.5,20.66c-30.32,7.58-61.38,12.25-92.59,13.85c2.57,13.5699,3.82,27.36,6.69,40.89 c6.99,36.6499,20.54,71.8099,38.16,104.63c25.57,47.4199,56.05,91.95,87.01,135.97c2.5,3.77,5.66,7.25,6.99,11.6799 c-5.93-4.2-10.2-10.22-15.26-15.35c-27.09-29.85-53.71-60.39-75.87-94.15c-20.96-31.9299-36.58-66.8899-52.63-101.4199 c-7.63-16.42-15.5-32.74-22.48-49.4401c-3.99-9.6799-7.78-19.5399-9.52-29.9199c-10.83,1.51-21.57,4.1899-32.57,4.1499 c-15.11-0.6299-29.8-5.3099-44.98-4.96c-10.05-0.23-20,1.3301-29.99,2.03c-9.6,0.38-19.32,0.58-28.76-1.5 c-21.6-4.4301-40.67-17.6-54.77-34.25c-9.96-11.49-17.05-25.11-22.75-39.12c-7.97-20.54-13.67-41.87-21.45-62.47 c-6.21-16.54-15.69-31.7001-27.06-45.17c-6.86-8.5699-14.38-16.8-19.19-26.77c-4.46-8.66-5.6-18.8199-3.57-28.2999 c2.81-13.9801,10.34-26.38,18.13-38.1001c10.82-16.0699,22.53-31.5299,33.28-47.6499c23.69-35.2001,43.06-73.4401,56.05-113.88 c15.86-48.51,19.12-99.8201,30.65-149.3201c4.29-18.06,10.88-35.53,19.47-51.97c8.37-14.77,18.28-28.6,29.1-41.66 c21.45-26.19,45.69-51.42,76.56-66.38c32.22-15.33,68.26-18.65,102.08-28.99c17.57-5.41,34.47-12.81,50.74-21.32 c2.43-1.21,4.69-2.68,6.95-4.17c0.01-7.76-0.98-15.48-0.74-23.24c0.18-10.33-0.4-20.68,0.45-30.98c0.48-16-0.1-32.03,1.1-48 c0.29-11.03,0.09-22.07,1.06-33.06c-0.04-14.02,1.27-27.97,1.39-41.98c1.04-8.62,0.48-17.34,1.36-25.97 c2.3-48.67,5.37-97.3,9.61-145.85c4.23-45.27,9.1-90.59,18.28-135.16c8-38.4,19.85-76.43,39.43-110.6 c9.63-16.84,20.79-32.84,33.66-47.36c11.99-13.13,25.12-25.6,40.89-34.08c15.27-8.68,33.19-12.75,50.7-10.75 c13.77,1.08,27.15,6.48,37.65,15.48c14.08,12.03,24.02,27.99,32.92,44.03c18.18,33.86,31.07,70.19,43.77,106.37 c7.05,20.84,14.48,41.61,19.91,62.95c21.73-30.63,44.84-60.29,69.71-88.45c44.89-50.96,93.21-98.83,143.48-144.47 c28.77-25.72,57.9-51.21,89.35-73.66C1089.26,25.21,1101.4301,17.2,1114.85,11.79 M602.59,138.69c-17.4,6.61-31.67,19.26-44.1,32.8 c-21.52,24.14-38.39,52.21-51.14,81.86c-16.48,39.12-25.02,81-31.47,122.79c-6.67,44.67-10.22,89.75-11.77,134.86 c-1.24,15.63-0.15,31.35-1.35,46.98c-0.67,66.67,0.51,133.35-0.31,200.02c-0.75,10.54-0.9,21.12-2.24,31.62 c31.31-16.75,62.62-34.24,96.78-44.6c22.81-7.03,46.54-10.34,69.5-16.76c11.79-3.46,24.04-7.91,32.5-17.25 c6.47-7.13,10.02-16.39,12.12-25.66c3.67-16.53,4.01-33.53,5-50.36c0.99-25.17,2.5-50.37,6.22-75.31 c5.83-41.41,18.37-81.67,35.47-119.77c0.68-2.07,2.42-4.2,1.53-6.45c-7.39-20.31-11.31-41.66-15.86-62.74 c-10.8-52.07-20.24-104.45-33.11-156.07c-4.8-18.42-9.63-37-17.82-54.26c-4.04-8.02-8.99-16.24-16.98-20.85 C625.56,133.75,613.07,134.82,602.59,138.69z"></path> <path d="M588.43,928.68c27.64-3.91,56.78,0.69,81.01,14.89c10.37,5.95,19.99,13.14,29.21,20.73c3.39,3.02,7.37,6.09,8.54,10.7 c-0.46,3.15-3.43,4.96-6.05,6.23c-5.8,2.68-12.49,4.06-17.11,8.8c-5.23,5.42-7.75,12.7-10.28,19.64 c-6.05,17.36-10.74,35.53-20.82,51.1401c-11.65,18.37-30.99,31.34-52.04,36.37c-20.31,4.8099-41.42,0.5199-60.85-6 c-17.63-6.1001-34.94-13.9301-49.77-25.4c-9.77-7.55-16.81-17.9401-26.48-25.5901c-2.97-2.33-1.37-6.5099-0.08-9.3099 c4.71-9.31,10.74-17.89,16.84-26.32c15.18-20.51,32.35-40.03,53.63-54.4C550.39,939.13,568.96,931.4,588.43,928.68z"></path> </g> </svg> 